<?xml version="1.0" standalone="no"?>
<!DOCTYPE svg PUBLIC "-//W3C//DTD SVG 20010904//EN"
 "http://www.w3.org/TR/2001/REC-SVG-20010904/DTD/svg10.dtd">
<svg version="1.0" xmlns="http://www.w3.org/2000/svg"
 width="1280.000000pt" height="640.000000pt" viewBox="0 0 1280.000000 640.000000"
 preserveAspectRatio="xMidYMid meet">
<metadata>
Created by potrace 1.15, written by Peter Selinger 2001-2017
</metadata>
<g transform="translate(0.000000,640.000000) scale(0.100000,-0.100000)"
fill="#ffeb3b" stroke="none">
<path d="M1421 3574 c-22 -16 -23 -22 -19 -88 3 -39 3 -77 1 -83 -3 -10 -43
-13 -153 -13 -139 0 -148 1 -153 20 -5 20 -14 20 -486 20 l-482 0 -8 -22 c-7
-19 -15 -22 -47 -20 -66 4 -68 0 -72 -160 -2 -79 0 -159 5 -178 9 -33 12 -35
55 -38 41 -3 47 -6 53 -30 13 -54 -7 -52 499 -52 l472 0 15 33 14 32 141 3
c117 2 143 0 154 -13 19 -23 455 -23 464 0 5 13 29 15 158 13 l153 -3 3 -32
c3 -31 4 -31 65 -38 34 -3 85 -7 114 -8 28 -1 55 -5 59 -9 4 -5 41 -8 83 -8
71 0 74 -1 53 -16 -26 -18 -27 -27 -6 -48 22 -22 87 -21 107 2 23 25 22 29
-10 46 l-28 15 27 1 c21 0 29 7 38 35 l11 35 237 2 237 3 3 33 c2 17 6 32 9
32 4 0 45 -8 92 -17 81 -17 339 -18 4571 -18 4220 0 4490 1 4570 17 47 10 114
32 150 50 75 38 86 61 77 161 -7 74 -24 99 -91 131 -86 41 -168 56 -366 67
-122 6 -1705 9 -4615 7 l-4430 -4 -94 -21 c-91 -21 -95 -22 -130 -4 -29 15
-70 19 -210 24 -176 6 -211 1 -211 -28 0 -13 -45 -15 -313 -15 l-313 0 -27 70
c-15 38 -27 80 -27 93 0 23 -4 24 -82 30 -159 13 -291 9 -317 -9z"/>
</g>
</svg>
